<svg xmlns="http://www.w3.org/2000/svg" viewBox="0 0 127.5 116.38">
  <g fill="#0052cc">
    <path d="M126.92,1.21A3,3,0,0,0,124.51,0a2.91,2.91,0,0,0-1.39.35A123.91,123.91,0,0,1,63.75,15.18,123.91,123.91,0,0,1,4.39.35,2.9,2.9,0,0,0,3,0,3,3,0,0,0,.58,1.21a3,3,0,0,0,.56,4.1A105,105,0,0,0,30.2,20.61a104.34,104.34,0,0,0,33.55,5.53h0A104.33,104.33,0,0,0,97.3,20.61,105,105,0,0,0,126.37,5.3a3,3,0,0,0,.55-4.09Z"/>
    <path d="M106.57,28.83a2.37,2.37,0,0,0-2.29-.33,116.87,116.87,0,0,1-15.1,4.56,3,3,0,0,0-2.08,1.81c-3.47,9.49-12.32,18.53-21.6,28a2.44,2.44,0,0,1-1.74.82A2.4,2.4,0,0,1,62,62.87c-9.28-9.47-18.14-18.48-21.6-28a3,3,0,0,0-2.08-1.81,117.23,117.23,0,0,1-15.11-4.61,2.39,2.39,0,0,0-.85-.16,2.34,2.34,0,0,0-1.43.48A2.37,2.37,0,0,0,20,30.9c.79,7.9,3.91,15.61,9.54,23.7,5.29,7.6,12.2,14.64,18.87,21.45,12.3,12.54,23.91,24.39,24.93,38.13a2.37,2.37,0,0,0,2.37,2.2H90.17a2.38,2.38,0,0,0,2.37-2.49C92.09,104.7,88.63,95.51,82,85.77c-1.39-2-2.89-4-4.45-6a1.72,1.72,0,0,1,.12-2.27l1.45-1.48C85.76,69.25,92.66,62.21,98,54.6c5.63-8.09,8.75-15.76,9.54-23.66a2.44,2.44,0,0,0-.92-2.12Z"/>
    <path d="M48.25,86.74A2.2,2.2,0,0,0,46.56,86a2.38,2.38,0,0,0-2,1.12c-6.08,9.25-9.22,18-9.65,26.75a2.38,2.38,0,0,0,2.38,2.5H51.76a2.4,2.4,0,0,0,2.38-2.21,32.07,32.07,0,0,1,4-12.92,3.35,3.35,0,0,0-.29-3.61,133.57,133.57,0,0,0-9.62-10.91Z"/><path class="cls-1" d="M63.77,35.9c4.53,0,7.15-.27,8.08-.27A2.2,2.2,0,0,1,74,37.83a2.36,2.36,0,0,1-.18.88A38.38,38.38,0,0,1,65.42,51a2.33,2.33,0,0,1-1.67.66h0A2.32,2.32,0,0,1,62.08,51a38.35,38.35,0,0,1-8.43-12.34,2.34,2.34,0,0,1-.18-.88,2.21,2.21,0,0,1,2.19-2.2c.92,0,3.55.27,8.07.27Z"/>
  </g>
</svg>